<mxfile host="Electron" agent="Mozilla/5.0 (Windows NT 10.0; Win64; x64) AppleWebKit/537.36 (KHTML, like Gecko) draw.io/26.2.2 Chrome/134.0.6998.178 Electron/35.1.2 Safari/537.36" version="26.2.2">
  <diagram name="Página-1" id="zQJEBdUrxHZNE10N-Y2_">
    <mxGraphModel dx="795" dy="525" grid="1" gridSize="10" guides="1" tooltips="1" connect="1" arrows="1" fold="1" page="1" pageScale="1" pageWidth="827" pageHeight="1169" math="0" shadow="0">
      <root>
        <mxCell id="0" />
        <mxCell id="1" parent="0" />
        <mxCell id="T6-I_JXjhjmYnUWsMw4N-30" value="&lt;div&gt;&lt;br&gt;&lt;/div&gt;&lt;div&gt;&lt;br&gt;&lt;/div&gt;&lt;div&gt;&lt;br&gt;&lt;/div&gt;&lt;div&gt;&lt;br&gt;&lt;/div&gt;&lt;div&gt;&amp;nbsp; &amp;nbsp;&amp;nbsp;&lt;/div&gt;&lt;div&gt;&amp;nbsp; &amp;nbsp;&amp;nbsp;&lt;/div&gt;&lt;div&gt;&amp;nbsp; &amp;nbsp; &amp;nbsp;Pipeline&lt;br&gt;&lt;/div&gt;" style="rounded=0;whiteSpace=wrap;html=1;align=left;fontFamily=Comic Sans MS;" vertex="1" parent="1">
          <mxGeometry x="300" y="200" width="320" height="160" as="geometry" />
        </mxCell>
        <mxCell id="T6-I_JXjhjmYnUWsMw4N-8" style="edgeStyle=orthogonalEdgeStyle;rounded=0;orthogonalLoop=1;jettySize=auto;html=1;entryX=0;entryY=0.5;entryDx=0;entryDy=0;strokeWidth=2;fontFamily=Comic Sans MS;" edge="1" parent="1" source="T6-I_JXjhjmYnUWsMw4N-2" target="T6-I_JXjhjmYnUWsMw4N-7">
          <mxGeometry relative="1" as="geometry" />
        </mxCell>
        <mxCell id="T6-I_JXjhjmYnUWsMw4N-2" value="df" style="text;html=1;align=center;verticalAlign=middle;whiteSpace=wrap;rounded=0;fontFamily=Comic Sans MS;" vertex="1" parent="1">
          <mxGeometry x="30" y="140" width="40" height="30" as="geometry" />
        </mxCell>
        <mxCell id="T6-I_JXjhjmYnUWsMw4N-27" style="edgeStyle=orthogonalEdgeStyle;rounded=0;orthogonalLoop=1;jettySize=auto;html=1;entryX=0;entryY=0.5;entryDx=0;entryDy=0;strokeWidth=2;fontFamily=Comic Sans MS;" edge="1" parent="1" source="T6-I_JXjhjmYnUWsMw4N-5" target="T6-I_JXjhjmYnUWsMw4N-20">
          <mxGeometry relative="1" as="geometry" />
        </mxCell>
        <mxCell id="T6-I_JXjhjmYnUWsMw4N-5" value="X, y, groups" style="text;html=1;align=center;verticalAlign=middle;whiteSpace=wrap;rounded=0;fontFamily=Comic Sans MS;" vertex="1" parent="1">
          <mxGeometry x="260" y="140" width="60" height="30" as="geometry" />
        </mxCell>
        <mxCell id="T6-I_JXjhjmYnUWsMw4N-18" style="edgeStyle=orthogonalEdgeStyle;rounded=0;orthogonalLoop=1;jettySize=auto;html=1;dashed=1;fontFamily=Comic Sans MS;" edge="1" parent="1" source="T6-I_JXjhjmYnUWsMw4N-7" target="T6-I_JXjhjmYnUWsMw4N-15">
          <mxGeometry relative="1" as="geometry" />
        </mxCell>
        <mxCell id="T6-I_JXjhjmYnUWsMw4N-19" style="edgeStyle=orthogonalEdgeStyle;rounded=0;orthogonalLoop=1;jettySize=auto;html=1;entryX=0.5;entryY=0;entryDx=0;entryDy=0;dashed=1;fontFamily=Comic Sans MS;" edge="1" parent="1" source="T6-I_JXjhjmYnUWsMw4N-7" target="T6-I_JXjhjmYnUWsMw4N-17">
          <mxGeometry relative="1" as="geometry" />
        </mxCell>
        <mxCell id="T6-I_JXjhjmYnUWsMw4N-7" value="Windowing&lt;div&gt;Feature extraction&lt;/div&gt;" style="rounded=1;whiteSpace=wrap;html=1;fontFamily=Comic Sans MS;strokeWidth=2;" vertex="1" parent="1">
          <mxGeometry x="110" y="125" width="120" height="60" as="geometry" />
        </mxCell>
        <mxCell id="T6-I_JXjhjmYnUWsMw4N-15" value="window_size=350&#xa;window_step=0.5" style="rounded=0;whiteSpace=wrap;html=1;fontFamily=Comic Sans MS;" vertex="1" parent="1">
          <mxGeometry x="110" y="40" width="120" height="60" as="geometry" />
        </mxCell>
        <mxCell id="T6-I_JXjhjmYnUWsMw4N-17" value="&lt;font style=&quot;color: rgb(255, 0, 0);&quot;&gt;- mean, std, min, max, median, skew, RMS (7)&lt;/font&gt;&lt;div&gt;&lt;font style=&quot;color: rgb(0, 0, 255);&quot;&gt;-&amp;nbsp;&lt;span style=&quot;background-color: transparent;&quot;&gt;acc/gyro/grav × 3 axes (9)&lt;/span&gt;&lt;/font&gt;&lt;/div&gt;&lt;div&gt;&lt;font style=&quot;color: rgb(255, 0, 0);&quot;&gt;7&lt;/font&gt; × &lt;font style=&quot;color: rgb(0, 0, 255);&quot;&gt;9&lt;/font&gt;= 63 features per window&lt;/div&gt;" style="rounded=0;whiteSpace=wrap;html=1;fontFamily=Comic Sans MS;" vertex="1" parent="1">
          <mxGeometry x="80" y="210" width="180" height="90" as="geometry" />
        </mxCell>
        <mxCell id="T6-I_JXjhjmYnUWsMw4N-34" style="edgeStyle=orthogonalEdgeStyle;rounded=0;orthogonalLoop=1;jettySize=auto;html=1;entryX=0;entryY=0.5;entryDx=0;entryDy=0;dashed=1;fontFamily=Comic Sans MS;" edge="1" parent="1" source="T6-I_JXjhjmYnUWsMw4N-20" target="T6-I_JXjhjmYnUWsMw4N-32">
          <mxGeometry relative="1" as="geometry" />
        </mxCell>
        <mxCell id="T6-I_JXjhjmYnUWsMw4N-40" style="edgeStyle=orthogonalEdgeStyle;rounded=0;orthogonalLoop=1;jettySize=auto;html=1;entryX=0;entryY=0.5;entryDx=0;entryDy=0;strokeWidth=2;fontFamily=Comic Sans MS;" edge="1" parent="1" source="T6-I_JXjhjmYnUWsMw4N-20" target="T6-I_JXjhjmYnUWsMw4N-35">
          <mxGeometry relative="1" as="geometry" />
        </mxCell>
        <mxCell id="T6-I_JXjhjmYnUWsMw4N-52" style="edgeStyle=orthogonalEdgeStyle;rounded=0;orthogonalLoop=1;jettySize=auto;html=1;entryX=0.25;entryY=0;entryDx=0;entryDy=0;dashed=1;fontFamily=Comic Sans MS;" edge="1" parent="1" source="T6-I_JXjhjmYnUWsMw4N-20" target="T6-I_JXjhjmYnUWsMw4N-30">
          <mxGeometry relative="1" as="geometry" />
        </mxCell>
        <mxCell id="T6-I_JXjhjmYnUWsMw4N-53" style="edgeStyle=orthogonalEdgeStyle;rounded=0;orthogonalLoop=1;jettySize=auto;html=1;entryX=0.5;entryY=0;entryDx=0;entryDy=0;dashed=1;fontFamily=Comic Sans MS;" edge="1" parent="1" source="T6-I_JXjhjmYnUWsMw4N-20" target="T6-I_JXjhjmYnUWsMw4N-25">
          <mxGeometry relative="1" as="geometry" />
        </mxCell>
        <mxCell id="T6-I_JXjhjmYnUWsMw4N-20" value="Cross-Validation" style="rounded=1;whiteSpace=wrap;html=1;fontFamily=Comic Sans MS;strokeWidth=2;" vertex="1" parent="1">
          <mxGeometry x="344" y="141.25" width="100" height="27.5" as="geometry" />
        </mxCell>
        <mxCell id="T6-I_JXjhjmYnUWsMw4N-23" style="edgeStyle=orthogonalEdgeStyle;rounded=0;orthogonalLoop=1;jettySize=auto;html=1;entryX=-0.032;entryY=0.511;entryDx=0;entryDy=0;entryPerimeter=0;strokeWidth=2;fontFamily=Comic Sans MS;" edge="1" parent="1" source="T6-I_JXjhjmYnUWsMw4N-7" target="T6-I_JXjhjmYnUWsMw4N-5">
          <mxGeometry relative="1" as="geometry" />
        </mxCell>
        <mxCell id="T6-I_JXjhjmYnUWsMw4N-25" value="&lt;div&gt;full data&lt;/div&gt;stratified 5 Fold cross&lt;div&gt;Logistic Regression, D. Trees, KNN, NaiveBayes&lt;/div&gt;" style="rounded=0;whiteSpace=wrap;html=1;fontFamily=Comic Sans MS;" vertex="1" parent="1">
          <mxGeometry x="314" y="215" width="160" height="75" as="geometry" />
        </mxCell>
        <mxCell id="T6-I_JXjhjmYnUWsMw4N-37" style="edgeStyle=orthogonalEdgeStyle;rounded=0;orthogonalLoop=1;jettySize=auto;html=1;dashed=1;fontFamily=Comic Sans MS;" edge="1" parent="1" source="T6-I_JXjhjmYnUWsMw4N-32" target="T6-I_JXjhjmYnUWsMw4N-36">
          <mxGeometry relative="1" as="geometry" />
        </mxCell>
        <mxCell id="T6-I_JXjhjmYnUWsMw4N-32" value="data splitting" style="rounded=1;whiteSpace=wrap;html=1;fontFamily=Comic Sans MS;" vertex="1" parent="1">
          <mxGeometry x="430" y="80" width="60" height="37.5" as="geometry" />
        </mxCell>
        <mxCell id="T6-I_JXjhjmYnUWsMw4N-42" style="edgeStyle=orthogonalEdgeStyle;rounded=0;orthogonalLoop=1;jettySize=auto;html=1;dashed=1;fontFamily=Comic Sans MS;" edge="1" parent="1" source="T6-I_JXjhjmYnUWsMw4N-35">
          <mxGeometry relative="1" as="geometry">
            <mxPoint x="550" y="200" as="targetPoint" />
            <Array as="points">
              <mxPoint x="550" y="200" />
            </Array>
          </mxGeometry>
        </mxCell>
        <mxCell id="T6-I_JXjhjmYnUWsMw4N-35" value="Model training" style="rounded=1;whiteSpace=wrap;html=1;fontFamily=Comic Sans MS;strokeWidth=2;" vertex="1" parent="1">
          <mxGeometry x="490" y="141.25" width="100" height="27.5" as="geometry" />
        </mxCell>
        <mxCell id="T6-I_JXjhjmYnUWsMw4N-36" value="&lt;div&gt;temporal 80%-20% split to avoid data leakeage&lt;/div&gt;" style="rounded=0;whiteSpace=wrap;html=1;fontFamily=Comic Sans MS;" vertex="1" parent="1">
          <mxGeometry x="380" y="20" width="160" height="45" as="geometry" />
        </mxCell>
        <mxCell id="T6-I_JXjhjmYnUWsMw4N-55" value="Standard Scaler" style="text;html=1;align=center;verticalAlign=middle;whiteSpace=wrap;rounded=0;fontFamily=Comic Sans MS;" vertex="1" parent="1">
          <mxGeometry x="500" y="210" width="100" height="20" as="geometry" />
        </mxCell>
        <mxCell id="T6-I_JXjhjmYnUWsMw4N-56" value="Select K Best" style="text;html=1;align=center;verticalAlign=middle;whiteSpace=wrap;rounded=0;fontFamily=Comic Sans MS;" vertex="1" parent="1">
          <mxGeometry x="500" y="247" width="100" height="20" as="geometry" />
        </mxCell>
        <mxCell id="T6-I_JXjhjmYnUWsMw4N-57" value="RFE" style="text;html=1;align=center;verticalAlign=middle;whiteSpace=wrap;rounded=0;fontFamily=Comic Sans MS;" vertex="1" parent="1">
          <mxGeometry x="495" y="290" width="110" height="20" as="geometry" />
        </mxCell>
        <mxCell id="T6-I_JXjhjmYnUWsMw4N-58" value="CLF" style="text;html=1;align=center;verticalAlign=middle;whiteSpace=wrap;rounded=0;fontFamily=Comic Sans MS;" vertex="1" parent="1">
          <mxGeometry x="495" y="330" width="110" height="20" as="geometry" />
        </mxCell>
        <mxCell id="T6-I_JXjhjmYnUWsMw4N-67" value="" style="endArrow=classic;html=1;rounded=0;fontFamily=Comic Sans MS;" edge="1" parent="1">
          <mxGeometry width="50" height="50" relative="1" as="geometry">
            <mxPoint x="549.77" y="230" as="sourcePoint" />
            <mxPoint x="549.77" y="250" as="targetPoint" />
          </mxGeometry>
        </mxCell>
        <mxCell id="T6-I_JXjhjmYnUWsMw4N-68" value="" style="endArrow=classic;html=1;rounded=0;fontFamily=Comic Sans MS;" edge="1" parent="1">
          <mxGeometry width="50" height="50" relative="1" as="geometry">
            <mxPoint x="549.77" y="267" as="sourcePoint" />
            <mxPoint x="549.77" y="287" as="targetPoint" />
          </mxGeometry>
        </mxCell>
        <mxCell id="T6-I_JXjhjmYnUWsMw4N-69" value="" style="endArrow=classic;html=1;rounded=0;fontFamily=Comic Sans MS;" edge="1" parent="1">
          <mxGeometry width="50" height="50" relative="1" as="geometry">
            <mxPoint x="549.77" y="310" as="sourcePoint" />
            <mxPoint x="549.77" y="330" as="targetPoint" />
          </mxGeometry>
        </mxCell>
        <mxCell id="T6-I_JXjhjmYnUWsMw4N-73" value="&lt;div&gt;Metrics:&lt;/div&gt;Acc, F1, Kappa" style="text;html=1;align=center;verticalAlign=middle;whiteSpace=wrap;rounded=0;fontFamily=Comic Sans MS;" vertex="1" parent="1">
          <mxGeometry x="385" y="310" width="110" height="30" as="geometry" />
        </mxCell>
      </root>
    </mxGraphModel>
  </diagram>
</mxfile>
